<svg width="1127" height="521" viewBox="0 0 1127 521" fill="none" xmlns="http://www.w3.org/2000/svg">
<path d="M36.274 373.336C36.274 377.356 43.2938 379.365 57.3333 379.365C60.7968 379.365 63.3635 378.994 65.0334 378.252C69.4246 376.15 74.8054 375.099 81.1758 375.099C87.608 375.099 90.8241 376.737 90.8241 380.014C90.8241 381.313 90.2675 383.23 89.1542 385.765C88.1028 388.239 87.2988 389.754 86.7421 390.31C86.2474 390.867 84.2682 391.64 80.8047 392.629C77.3412 393.557 75.0837 394.082 74.0323 394.206C73.0428 394.268 72.3624 394.329 71.9913 394.391C71.6821 394.453 71.2801 394.515 70.7853 394.577C70.3524 394.639 69.3319 394.824 67.7238 395.133C66.1158 395.381 64.9406 395.35 64.1985 395.041C43.7267 405.12 29.6562 416.188 21.987 428.246C18.5235 433.688 16.7918 438.357 16.7918 442.252C16.7918 448.374 21.0284 451.435 29.5016 451.435C36.1194 451.435 44.5307 448.838 54.7357 443.643C64.9406 438.449 73.9705 432.173 81.8252 424.814C89.7418 417.394 93.7001 410.963 93.7001 405.522C93.7001 403.79 94.9989 402.925 97.5965 402.925C103.596 402.925 106.595 406.48 106.595 413.591C106.595 416.93 105.142 420.919 102.235 425.557C99.3282 430.132 95.2772 434.801 90.0819 439.562C84.8867 444.262 79.1039 448.652 72.7335 452.733C66.3631 456.814 59.2815 460.154 51.4886 462.751C43.7576 465.348 37.2017 466.646 31.8209 466.646C26.4401 466.646 22.0798 466.121 18.74 465.07C15.4621 464.08 12.3696 462.565 9.46278 460.525C3.15426 456.134 0 449.487 0 440.583C0 435.759 1.29881 430.874 3.89644 425.928C6.49406 420.919 9.89572 416.374 14.1014 412.293C21.8324 404.625 30.1201 398.256 38.9644 393.186C26.2236 390.279 19.8533 383.725 19.8533 373.522C19.8533 362.02 28.6976 351.508 46.3862 341.986C56.22 336.729 66.8889 332.957 78.3926 330.67C83.8353 329.557 88.3811 329 92.0302 329C99.4519 329 105.049 329.587 108.822 330.762C111.11 331.875 112.966 333.452 114.388 335.493C115.811 337.471 116.522 339.203 116.522 340.687C116.522 342.109 116.337 343.408 115.965 344.583C115.594 345.757 114.976 346.685 114.11 347.365C112.873 348.293 111.481 349.004 109.935 349.499C108.389 349.993 107.492 350.302 107.245 350.426C102.421 352.467 98.2768 353.487 94.8133 353.487C88.6285 353.487 85.2578 352.683 84.7011 351.075C84.8248 349.468 85.5052 347.613 86.7421 345.51C80.8666 345.757 74.7745 346.963 68.466 349.128C62.1575 351.23 56.6839 353.734 52.0453 356.641C47.4685 359.485 43.6958 362.453 40.7271 365.545C37.7583 368.637 36.274 371.234 36.274 373.336Z" fill="#0199B9"/>
<path d="M123.447 445.499L123.354 446.983C123.354 448.528 123.941 449.858 125.116 450.971C126.292 452.084 127.374 452.641 128.364 452.641C135.785 452.641 142.341 451.528 148.031 449.301C153.783 447.075 156.659 444.849 156.659 442.623C156.659 441.572 155.608 440.675 153.505 439.933C151.464 439.129 147.969 438.171 143.022 437.058C138.136 435.883 134.579 434.986 132.353 434.368C130.126 433.688 128.364 433.07 127.065 432.513C125.766 431.957 124.436 431.184 123.075 430.194C120.169 428.154 118.715 425.124 118.715 421.104C118.715 417.023 120.2 413.004 123.168 409.046C126.199 405.027 129.972 401.595 134.486 398.751C139.001 395.906 143.856 393.402 149.052 391.238C159.319 386.971 167.946 384.838 174.935 384.838C181.8 384.838 186.037 386.322 187.645 389.29C188.14 390.341 188.387 391.516 188.387 392.814V393.464C188.387 396.741 187.676 399.307 186.253 401.162C184.893 403.017 182.697 404.687 179.667 406.171C176.698 407.655 174.317 408.397 172.523 408.397C170.791 408.397 169.678 408.273 169.183 408.026C168.75 407.779 168.379 407.47 168.07 407.099C167.761 406.666 167.359 406.357 166.864 406.171C166.431 405.986 166.215 405.522 166.215 404.78C166.215 404.038 166.524 403.296 167.142 402.554C167.761 401.75 168.194 400.915 168.441 400.049C164.359 400.235 160.092 401.193 155.639 402.925C151.186 404.594 147.351 406.48 144.135 408.583C140.981 410.685 138.352 412.695 136.249 414.612C134.146 416.529 133.095 417.951 133.095 418.878C133.095 419.744 134.517 420.455 137.362 421.012C150.165 423.547 158.576 425.742 162.597 427.597C166.617 429.452 169.4 431.555 170.946 433.904C172.492 436.254 173.265 438.387 173.265 440.304C173.265 444.262 171.688 448.003 168.534 451.528C165.38 455.052 161.483 457.928 156.845 460.154C146.887 465.039 138.197 467.481 130.776 467.481C123.416 467.481 118.313 466.337 115.468 464.049C112.685 461.823 111.293 459.164 111.293 456.072C111.293 452.981 112.067 450.136 113.613 447.539C115.221 444.88 117.262 443.551 119.736 443.551C122.21 443.551 123.447 444.2 123.447 445.499Z" fill="#0199B9"/>
<path d="M257.469 344.583L261.273 345.51C261.829 345.51 262.324 345.788 262.757 346.345C263.19 346.901 263.407 347.427 263.407 347.922C263.407 348.416 262.757 349.746 261.458 351.91C260.16 354.074 258.613 356.548 256.82 359.33C255.088 362.051 254.16 363.535 254.037 363.783C258.861 363.412 262.262 363.226 264.242 363.226C266.283 363.226 267.674 363.381 268.416 363.69C269.159 363.937 269.993 364.71 270.921 366.009C271.911 367.245 272.808 368.204 273.612 368.884C274.416 369.502 274.818 370.461 274.818 371.759C274.818 373.058 274.014 374.171 272.406 375.099C270.859 375.964 269.189 376.49 267.396 376.675C253.047 378.098 245.13 378.84 243.646 378.901C238.636 386.569 231.617 398.534 222.587 414.797C213.619 430.998 208.857 441.139 208.3 445.22C208.052 447.075 207.929 448.59 207.929 449.765C207.929 452.177 209.197 453.383 211.732 453.383C214.268 453.383 217.082 452.424 220.175 450.507C223.267 448.528 226.112 446.395 228.71 444.107C235.637 437.924 239.348 434.832 239.842 434.832C241.451 434.832 242.255 437.614 242.255 443.18C242.255 446.21 240.863 448.93 238.08 451.342C231.833 456.722 226.576 460.772 222.308 463.493C218.041 466.214 213.773 467.574 209.506 467.574C208.578 467.574 207.712 467.481 206.908 467.296C201.96 466.368 198.311 464.575 195.961 461.916C193.673 459.195 192.529 455.547 192.529 450.971C192.59 446.395 193.951 440.861 196.611 434.368C199.332 427.814 202.734 420.857 206.816 413.499C213.495 401.502 220.175 390.248 226.854 379.736L223.329 380.2C216.155 381.004 211.98 381.406 210.805 381.406H209.97C208.176 381.406 206.444 381.066 204.775 380.386C203.105 379.643 202.27 378.747 202.27 377.696C202.27 376.644 202.703 375.624 203.568 374.635C204.496 373.645 205.053 372.872 205.238 372.316C205.671 370.956 207.279 369.441 210.063 367.771C212.908 366.101 215.041 365.236 216.464 365.174C217.886 365.05 219.247 364.957 220.546 364.896C221.906 364.834 223.391 364.772 224.999 364.71C226.669 364.648 227.937 364.586 228.803 364.525L237.152 364.154C242.347 356.362 245.904 351.354 247.821 349.128C249.8 346.901 250.944 345.696 251.253 345.51C251.563 345.263 252.181 345.139 253.109 345.139L257.469 344.583Z" fill="#0199B9"/>
<path d="M315.697 393.557C320.397 393.557 322.748 395.164 322.748 398.38C322.748 400.111 322.346 401.379 321.542 402.183C320.737 402.986 319.006 405.676 316.346 410.252C313.749 414.766 310.842 420.579 307.626 427.69C304.471 434.739 302.43 440.768 301.503 445.777C301.317 446.395 301.224 447.261 301.224 448.374C301.224 451.775 302.152 453.475 304.008 453.475C305.863 453.475 308.059 452.61 310.594 450.878C313.13 449.085 315.388 447.199 317.367 445.22C319.346 443.18 321.263 441.108 323.119 439.006C325.036 436.903 326.18 435.698 326.551 435.388C326.922 435.079 327.479 434.925 328.221 434.925C329.396 434.925 330.107 435.821 330.355 437.614C330.602 439.408 330.726 441.263 330.726 443.18C330.726 445.097 330.54 446.426 330.169 447.168C328.376 450.693 324.417 454.928 318.294 459.875C312.233 464.822 306.698 467.296 301.688 467.296C296.74 467.296 293.091 465.781 290.741 462.751C288.391 459.721 287.216 456.382 287.216 452.733C287.216 449.023 287.834 445.777 289.071 442.994C283.938 449.672 278.031 455.33 271.352 459.968C264.734 464.606 259.322 466.925 255.117 466.925C250.911 466.925 247.478 465.657 244.819 463.122C241.417 459.968 239.716 455.609 239.716 450.043C239.716 444.416 240.953 438.789 243.427 433.162C245.963 427.473 249.272 422.31 253.354 417.672C257.436 412.973 261.92 408.706 266.806 404.872C277.073 396.834 286.535 392.814 295.194 392.814C298.534 392.814 301.255 393.371 303.358 394.484C305.461 395.597 306.791 396.988 307.347 398.658C308.832 396.432 310.069 395.041 311.058 394.484C312.11 393.866 313.656 393.557 315.697 393.557ZM303.358 403.852C292.782 403.852 281.835 409.727 270.517 421.475C266.497 425.68 262.786 430.72 259.384 436.594C256.044 442.469 254.374 446.488 254.374 448.652C254.374 450.816 254.993 451.899 256.23 451.899C257.962 451.899 262.786 448.498 270.702 441.696C278.619 434.832 283.876 429.792 286.474 426.577C289.319 422.99 294.947 415.415 303.358 403.852ZM328.778 366.009C327.108 367.616 322.469 370.554 314.862 374.82C307.255 379.087 302.523 381.22 300.668 381.22C298.874 381.22 297.977 380.416 297.977 378.809C297.977 378.252 298.132 377.665 298.441 377.046C299.802 373.46 301.812 370.214 304.471 367.307C307.193 364.339 310.161 361.557 313.378 358.959C316.594 356.362 319.408 354.229 321.82 352.559C324.232 350.828 325.902 349.529 326.83 348.664C327.757 347.798 328.407 346.809 328.778 345.696C329.211 344.583 330.046 344.026 331.283 344.026C332.52 344.026 333.695 345.108 334.808 347.272C335.983 349.375 336.571 351.385 336.571 353.301C336.571 358.372 333.973 362.608 328.778 366.009Z" fill="#0199B9"/>
<path d="M361.586 402.461C367.585 398.318 373.461 395.133 379.212 392.907C384.964 390.681 389.943 389.568 394.149 389.568C398.355 389.568 401.045 390.774 402.22 393.186C404.632 390.403 407.632 388.919 411.219 388.733C412.27 388.671 413.569 388.641 415.115 388.641C416.662 388.641 417.62 388.857 417.991 389.29C418.362 389.661 418.703 390.403 419.012 391.516C419.321 392.629 419.507 393.247 419.568 393.371C419.63 393.495 419.661 393.711 419.661 394.02C419.661 394.268 419.507 394.608 419.197 395.041C418.888 395.412 418.517 395.783 418.084 396.154C417.713 396.525 417.497 396.741 417.435 396.803C403.766 416.405 389.789 438.758 375.502 463.864C390.221 450.816 403.395 441.448 415.023 435.759C415.765 435.388 416.476 435.203 417.156 435.203C418.146 435.203 418.795 435.852 419.105 437.151C419.414 438.387 419.568 440.181 419.568 442.53C419.568 444.88 419.414 446.333 419.105 446.89C418.857 447.446 417.435 448.559 414.837 450.229C412.239 451.899 408.869 454.063 404.725 456.722C400.581 459.381 396.19 462.318 391.551 465.533C380.419 473.263 371.265 481.394 364.091 489.928C354.813 501.12 348.165 510.148 344.145 517.012C342.66 519.671 340.155 521 336.63 521C329.641 521 326.147 517.692 326.147 511.075C326.147 504.335 329.456 497.441 336.073 490.391C341.021 485.135 345.567 480.838 349.711 477.499C353.855 474.159 356.112 472.273 356.483 471.841C361.06 464.977 367.276 455.238 375.13 442.623C368.451 449.611 361.957 455.176 355.648 459.319C349.402 463.462 344.732 465.533 341.64 465.533C332.177 465.533 327.446 461.483 327.446 453.383C327.446 446.952 329.085 440.459 332.362 433.904C335.64 427.35 339.846 421.506 344.979 416.374C350.113 411.18 355.648 406.542 361.586 402.461ZM396.932 400.049C389.758 401.595 383.016 404.161 376.708 407.748C370.399 411.272 365.204 415.075 361.122 419.157C357.04 423.176 353.515 427.319 350.546 431.586C344.979 439.562 342.196 445.746 342.196 450.136C342.196 451.187 342.444 451.713 342.939 451.713C343.495 451.713 344.67 451.157 346.464 450.043C348.319 448.93 350.917 447.044 354.257 444.386C357.597 441.665 361.307 438.449 365.389 434.739C374.852 426.02 385.366 414.457 396.932 400.049Z" fill="#0199B9"/>
<path d="M483.177 362.206C483.177 365.73 481.538 369.286 478.26 372.872C474.982 376.397 471.549 378.159 467.962 378.159C464.437 378.159 462.674 376.304 462.674 372.594C462.674 368.884 464.22 365.359 467.313 362.02C470.467 358.619 473.931 356.919 477.703 356.919C479.373 356.919 480.703 357.383 481.693 358.31C482.682 359.238 483.177 360.536 483.177 362.206ZM468.148 443.18C468.148 445.035 467.962 446.364 467.591 447.168C464.561 453.352 459.736 458.36 453.119 462.194C446.501 465.966 440.749 467.852 435.863 467.852C430.977 467.852 426.771 466.214 423.246 462.936C419.721 459.659 417.958 456.32 417.958 452.919C417.958 449.518 419.659 444.571 423.06 438.078C426.462 431.586 429.864 425.587 433.265 420.084C436.667 414.581 438.368 411.613 438.368 411.18C438.368 410.685 437.718 409.757 436.42 408.397C435.183 407.037 434.564 406.047 434.564 405.429C434.564 404.749 435.832 403.048 438.368 400.328C440.965 397.545 444.089 394.824 447.738 392.165C451.449 389.444 454.263 388.084 456.18 388.084C458.159 388.084 459.922 388.95 461.468 390.681C463.014 392.413 463.787 393.989 463.787 395.412C463.787 396.834 456.428 410.221 441.708 435.574C441.522 435.945 440.996 436.78 440.131 438.078C439.327 439.315 438.677 440.366 438.182 441.232C437.749 442.036 437.224 443.025 436.605 444.2C435.368 446.673 434.75 448.745 434.75 450.414C434.75 452.517 436.172 453.568 439.017 453.568C441.862 453.568 444.8 452.61 447.831 450.693C450.923 448.714 453.583 446.55 455.809 444.2C461.623 437.955 464.932 434.832 465.736 434.832C467.344 434.832 468.148 437.614 468.148 443.18Z" fill="#0199B9"/>
<path d="M534.818 393.371C536.673 393.371 538.56 394.206 540.477 395.875C542.456 397.545 543.445 400.111 543.445 403.574C543.445 406.975 542.239 411.427 539.827 416.93C537.415 422.372 534.106 427.937 529.901 433.626C525.695 439.253 521.056 444.571 515.985 449.58C510.975 454.527 505.533 458.608 499.657 461.823C493.843 464.977 488.555 466.554 483.793 466.554C479.031 466.554 475.196 465.07 472.289 462.101C469.444 459.071 468.022 454.898 468.022 449.58C468.022 444.2 469.32 438.264 471.918 431.771C474.577 425.278 477.979 419.558 482.123 414.612C486.267 409.603 490.751 405.12 495.575 401.162C505.656 393.062 514.501 389.012 522.108 389.012C525.51 389.012 528.076 389.846 529.808 391.516C530.426 392.072 530.736 392.567 530.736 393V393.557C531.602 393.433 532.962 393.371 534.818 393.371ZM525.448 405.707H524.798C522.634 405.707 521.551 404.13 521.551 400.977C517.036 402.461 512.305 405.058 507.357 408.768C502.409 412.478 497.987 416.869 494.091 421.939C486.174 432.08 482.154 440.644 482.03 447.632C482.03 451.095 483.298 452.826 485.834 452.826C488.37 452.826 492.142 451.157 497.152 447.817C502.162 444.478 507.11 439.717 511.996 433.533C516.944 427.35 520.623 422.001 523.036 417.487C525.51 412.911 526.746 409.819 526.746 408.212C526.746 406.542 526.314 405.707 525.448 405.707Z" fill="#0199B9"/>
<path d="M562.059 445.499L561.967 446.983C561.967 448.528 562.554 449.858 563.729 450.971C564.904 452.084 565.987 452.641 566.976 452.641C574.398 452.641 580.954 451.528 586.644 449.301C592.396 447.075 595.272 444.849 595.272 442.623C595.272 441.572 594.22 440.675 592.118 439.933C590.077 439.129 586.582 438.171 581.634 437.058C576.748 435.883 573.192 434.986 570.966 434.368C568.739 433.688 566.976 433.07 565.677 432.513C564.379 431.957 563.049 431.184 561.688 430.194C558.781 428.154 557.328 425.124 557.328 421.104C557.328 417.023 558.812 413.004 561.781 409.046C564.812 405.027 568.584 401.595 573.099 398.751C577.614 395.906 582.469 393.402 587.665 391.238C597.931 386.971 606.559 384.838 613.548 384.838C620.413 384.838 624.65 386.322 626.258 389.29C626.753 390.341 627 391.516 627 392.814V393.464C627 396.741 626.289 399.307 624.866 401.162C623.506 403.017 621.31 404.687 618.279 406.171C615.311 407.655 612.93 408.397 611.136 408.397C609.404 408.397 608.291 408.273 607.796 408.026C607.363 407.779 606.992 407.47 606.683 407.099C606.374 406.666 605.972 406.357 605.477 406.171C605.044 405.986 604.827 405.522 604.827 404.78C604.827 404.038 605.137 403.296 605.755 402.554C606.374 401.75 606.807 400.915 607.054 400.049C602.972 400.235 598.704 401.193 594.251 402.925C589.798 404.594 585.964 406.48 582.748 408.583C579.593 410.685 576.965 412.695 574.862 414.612C572.759 416.529 571.708 417.951 571.708 418.878C571.708 419.744 573.13 420.455 575.975 421.012C588.778 423.547 597.189 425.742 601.209 427.597C605.229 429.452 608.013 431.555 609.559 433.904C611.105 436.254 611.878 438.387 611.878 440.304C611.878 444.262 610.301 448.003 607.147 451.528C603.992 455.052 600.096 457.928 595.457 460.154C585.5 465.039 576.81 467.481 569.388 467.481C562.028 467.481 556.926 466.337 554.081 464.049C551.298 461.823 549.906 459.164 549.906 456.072C549.906 452.981 550.679 450.136 552.225 447.539C553.834 444.88 555.875 443.551 558.348 443.551C560.822 443.551 562.059 444.2 562.059 445.499Z" fill="#0199B9"/>
<path fill-rule="evenodd" clip-rule="evenodd" d="M251.984 235.666V29.0051H253.632V235.666H251.984ZM869.825 250.828C886.305 236.435 895.754 216.44 898.171 190.84H856.641C854.444 207.98 849.225 220.23 840.985 227.591C832.745 234.952 820.44 238.633 804.069 238.633C786.161 238.633 772.537 231.821 763.198 218.197C753.969 204.574 749.355 184.798 749.355 158.869V137.609C749.575 112.01 754.519 92.6185 764.187 79.4344C773.965 66.1404 787.919 59.4934 806.047 59.4934C821.648 59.4934 833.459 63.3388 841.479 71.0295C849.609 78.6104 854.663 91.0255 856.641 108.275H898.171C895.534 82.0163 886.14 61.6907 869.99 47.2981C853.839 32.9054 832.525 25.709 806.047 25.709C786.38 25.709 769.021 30.3784 753.969 39.7172C739.027 49.056 727.546 62.35 719.526 79.5992C711.506 96.8484 707.495 116.789 707.495 139.422V161.835C707.825 183.919 711.945 203.31 719.856 220.01C727.766 236.71 738.973 249.62 753.475 258.739C768.088 267.748 784.952 272.252 804.069 272.252C831.426 272.252 853.345 265.111 869.825 250.828ZM443.318 161.835H344.767V235.666H459.963V268.956H303.072V29.0051H458.81V62.6246H344.767V128.875H443.318V161.835ZM535.278 213.089L515.831 268.956H472.488L563.129 29.0051H600.539L691.345 268.956H647.837L628.226 213.089H535.278ZM546.979 179.469H616.525L581.752 79.9288L546.979 179.469ZM1126.09 268.956H1084.56V162.33H977.276V268.956H935.581V29.0051H977.276V128.875H1084.56V29.0051H1126.09V268.956Z" fill="#333333"/>
<path fill-rule="evenodd" clip-rule="evenodd" d="M199.741 29.0051H253.632V235.666H212.102V88.6633L145.357 168.098H115.528L48.9478 88.6633V235.666H7.41779V29.0051H61.4727L130.689 112.065L199.741 29.0051Z" fill="#333333"/>
<path fill-rule="evenodd" clip-rule="evenodd" d="M48.93 103.5V88.6633L7.39999 40V54.8367L48.93 103.5ZM253.614 54.8367V40L212.084 88.6633V103.5L253.614 54.8367Z" fill="black" fill-opacity="0.25"/>
<rect x="7" y="253" width="247" height="16" fill="#FB9E0D"/>
<rect x="83" width="95" height="15" fill="#FB9E0D"/>
<rect x="178" y="15" width="14" height="15" transform="rotate(90 178 15)" fill="#FB9E0D"/>
<rect x="98" y="15" width="14" height="15" transform="rotate(90 98 15)" fill="#FB9E0D"/>
</svg>
